<svg width="195" height="64" viewBox="0 0 195 64" fill="none" xmlns="http://www.w3.org/2000/svg">
<path d="M154.99 43.616H152.036V17.9021C152.036 17.3926 151.811 17.1378 151.361 17.1378C150.432 17.1378 149.49 17.2128 148.533 17.3626L148.702 21.5883V46.583H157.016C157.41 46.583 157.607 46.3433 157.607 45.8638C157.607 45.0546 157.495 44.2304 157.269 43.3913C156.763 43.5411 156.003 43.616 154.99 43.616Z" fill="white"/>
<path d="M159.38 17.9021C159.38 19.6104 159.985 20.4645 161.195 20.4645C162.404 20.4645 163.009 19.6104 163.009 17.9021C163.009 16.1938 162.404 15.3397 161.195 15.3397C159.985 15.3397 159.38 16.1938 159.38 17.9021ZM158.578 24.5553C158.212 24.5553 158.029 24.8476 158.029 25.432C158.029 26.0164 158.128 26.6982 158.325 27.4774L159.633 27.2526V43.7509C159.633 44.9197 159.823 45.7589 160.203 46.2684C160.583 46.7779 161.166 47.0326 161.954 47.0326C162.742 47.0326 163.34 46.8228 163.748 46.4032C164.156 45.9837 164.346 45.3843 164.318 44.6051C163.727 44.6051 163.326 44.4702 163.115 44.2005C162.904 43.9307 162.798 43.4812 162.798 42.8518V24.5553H158.578Z" fill="white"/>
<path d="M169.444 43.1781V28.5035C169.848 27.5498 170.414 27.073 171.142 27.073C171.977 27.073 172.395 27.5806 172.395 28.5958V46.4545C172.395 46.9159 172.624 47.1467 173.082 47.1467C174.025 47.1467 174.901 47.0851 175.71 46.9621C175.521 45.9469 175.427 44.6855 175.427 43.1781V28.5035C175.831 27.5498 176.397 27.073 177.125 27.073C177.96 27.073 178.378 27.5806 178.378 28.5958V44.0549C178.378 45.2547 178.56 46.1161 178.924 46.6391C179.287 47.1621 179.847 47.4235 180.601 47.4235C181.356 47.4235 181.929 47.2082 182.319 46.7775C182.71 46.3468 182.892 45.7315 182.865 44.9316C182.299 44.9316 181.915 44.7932 181.713 44.5163C181.511 44.2394 181.41 43.778 181.41 43.1319V28.3189C181.41 26.9038 181.113 25.8116 180.52 25.0425C179.927 24.2734 179.072 23.8889 177.953 23.8889C176.835 23.8889 175.818 24.4888 174.901 25.6886C174.308 24.4888 173.426 23.8889 172.253 23.8889C171.081 23.8889 170.077 24.3657 169.242 25.3194C168.891 24.3657 168.278 23.8889 167.402 23.8889C166.527 23.8889 165.893 24.1042 165.502 24.5349C165.112 24.9656 164.93 25.5809 164.957 26.3808C165.523 26.3808 165.907 26.5192 166.109 26.7961C166.311 27.073 166.412 27.5344 166.412 28.1805V46.4545C166.412 46.9159 166.641 47.1467 167.099 47.1467C168.042 47.1467 168.918 47.0851 169.727 46.9621C169.538 45.9469 169.444 44.6855 169.444 43.1781Z" fill="white"/>
<path d="M191.75 28.9159C191.75 31.0738 191.314 32.4973 190.442 33.1866L188.416 34.805V28.3765C188.416 27.4474 188.937 26.9829 189.978 26.9829C190.484 26.9829 190.906 27.1552 191.244 27.4999C191.582 27.8445 191.75 28.3165 191.75 28.9159ZM185.251 42.5821C185.251 45.5491 186.827 47.0326 189.978 47.0326C191.441 47.0326 192.616 46.6954 193.502 46.0211C194.388 45.3468 194.831 44.4103 194.831 43.2115V39.9747C194.831 39.4653 194.494 39.1206 193.818 38.9408C193.481 38.8209 193.122 38.761 192.742 38.761C192.362 38.761 191.99 38.8059 191.624 38.8958L191.75 41.0087V42.0426C191.75 43.4512 191.195 44.1555 190.083 44.1555C188.972 44.1555 188.416 43.5261 188.416 42.2674V38.1766L192.468 35.2096C193.256 34.6401 193.875 33.801 194.325 32.6921C194.775 31.5832 195 30.3695 195 29.0508C195 25.7541 193.375 24.1058 190.126 24.1058C186.876 24.1058 185.251 25.5743 185.251 28.5113V42.5821Z" fill="white"/>
<path d="M57.6111 45.7739C58.61 44.9347 59.1094 43.8858 59.1094 42.6271V40.1546C59.1094 39.6151 58.7436 39.2405 58.0121 39.0307C57.6182 38.9108 57.2243 38.8509 56.8304 38.8509C56.4365 38.8509 56.0425 38.8959 55.6486 38.9858L55.7753 41.2784V42.2674C55.7753 42.8369 55.5924 43.2789 55.2266 43.5936C54.8608 43.9083 54.3825 44.0656 53.7917 44.0656C53.2008 44.0656 52.7295 43.9008 52.3778 43.5711C52.0261 43.2415 51.8503 42.8069 51.8503 42.2674V21.6783C51.8503 21.1089 52.0261 20.6668 52.3778 20.3521C52.7295 20.0374 53.2008 19.8801 53.7917 19.8801C54.3825 19.8801 54.8608 20.0374 55.2266 20.3521C55.5924 20.6668 55.7753 21.1089 55.7753 21.6783V25.4994C55.7753 26.3086 55.733 27.0728 55.6486 27.7921C56.0425 27.882 56.4365 27.927 56.8304 27.927C57.2243 27.927 57.6182 27.867 58.0121 27.7471C58.7436 27.5373 59.1094 27.1627 59.1094 26.6233V21.0489C59.1094 19.8202 58.6311 18.8237 57.6744 18.0594C56.7178 17.2952 55.4306 16.9131 53.8128 16.9131C52.1949 16.9131 50.9077 17.3327 49.9511 18.1718C48.9944 19.011 48.5161 20.1798 48.5161 21.6783V42.4473C48.5161 43.9457 48.9804 45.0846 49.9089 45.8638C50.8373 46.643 52.1035 47.0326 53.7072 47.0326C55.311 47.0326 56.6123 46.613 57.6111 45.7739Z" fill="white"/>
<path d="M65.2714 42.8968V29.2306C65.4402 28.7511 65.6934 28.3165 66.0311 27.9269C66.3687 27.5373 66.7345 27.3425 67.1284 27.3425C67.9725 27.3425 68.3945 27.837 68.3945 28.826V31.1187C68.3945 31.8679 68.3523 32.5722 68.2679 33.2316C68.6337 33.3215 69.0065 33.3664 69.3863 33.3664C69.7661 33.3664 70.1249 33.3065 70.4625 33.1866C71.1378 33.0068 71.4754 32.6621 71.4754 32.1527V27.6572C71.4754 25.2896 70.3218 24.1058 68.0147 24.1058C66.7204 24.1058 65.7216 24.7052 65.0182 25.904C64.7368 24.7052 64.0334 24.1058 62.9079 24.1058C62.1483 24.1058 61.5644 24.3156 61.1565 24.7352C60.7485 25.1547 60.5586 25.7541 60.5867 26.5333C61.1776 26.5333 61.5785 26.6682 61.7895 26.9379C62.0006 27.2077 62.1061 27.6572 62.1061 28.2866V46.0886C62.1061 46.5381 62.3452 46.7629 62.8235 46.7629C63.8083 46.7629 64.7227 46.673 65.5668 46.4931C65.3699 45.5341 65.2714 44.3353 65.2714 42.8968Z" fill="white"/>
<path d="M79.916 28.9159C79.916 31.0738 79.4799 32.4973 78.6076 33.1866L76.5818 34.805V28.3765C76.5818 27.4474 77.1024 26.9829 78.1434 26.9829C78.6498 26.9829 79.0719 27.1552 79.4095 27.4999C79.7472 27.8445 79.916 28.3165 79.916 28.9159ZM73.4165 42.5821C73.4165 45.5491 74.9921 47.0326 78.1434 47.0326C79.6065 47.0326 80.7812 46.6954 81.6674 46.0211C82.5537 45.3468 82.9969 44.4103 82.9969 43.2115V39.9747C82.9969 39.4653 82.6592 39.1206 81.984 38.9408C81.6463 38.8209 81.2876 38.761 80.9078 38.761C80.5279 38.761 80.1551 38.8059 79.7894 38.8958L79.916 41.0087V42.0426C79.916 43.4512 79.3603 44.1555 78.2489 44.1555C77.1375 44.1555 76.5818 43.5261 76.5818 42.2674V38.1766L80.6334 35.2096C81.4213 34.6401 82.0402 33.801 82.4904 32.6921C82.9406 31.5832 83.1657 30.3695 83.1657 29.0508C83.1657 25.7541 81.5408 24.1058 78.2911 24.1058C75.0414 24.1058 73.4165 25.5743 73.4165 28.5113V42.5821Z" fill="white"/>
<path d="M89.7074 38.3564L91.7332 36.9178V42.3573C91.2267 43.4362 90.5303 43.9757 89.6441 43.9757C88.7578 43.9757 88.3146 43.204 88.3146 41.6605C88.3146 40.1171 88.7789 39.0157 89.7074 38.3564ZM90.1716 24.1058C88.7085 24.1058 87.5338 24.443 86.6475 25.1173C85.7613 25.7916 85.3181 26.7282 85.3181 27.9269V31.6132C85.3181 32.1227 85.6557 32.4673 86.331 32.6472C86.6686 32.767 87.0274 32.827 87.4072 32.827C87.7871 32.827 88.1599 32.782 88.5256 32.6921L88.399 30.5793V29.0958C88.399 27.6872 88.9547 26.9829 90.0661 26.9829C91.1775 26.9829 91.7332 27.6123 91.7332 28.871V33.7261L87.8926 36.1536C85.9512 37.4123 84.9805 39.2705 84.9805 41.728C84.9805 43.3463 85.3322 44.635 86.0356 45.5941C86.739 46.5531 87.6815 47.0326 88.8633 47.0326C90.045 47.0326 91.072 46.5681 91.9442 45.639C92.1974 46.5681 92.9149 47.0326 94.0966 47.0326C94.8563 47.0326 95.4401 46.8228 95.8481 46.4032C96.2561 45.9837 96.446 45.3843 96.4178 44.6051C95.827 44.6051 95.426 44.4702 95.215 44.2005C95.004 43.9307 94.8985 43.4812 94.8985 42.8518V28.5563C94.8985 25.5893 93.3229 24.1058 90.1716 24.1058Z" fill="white"/>
<path d="M106.589 46.0211C107.49 45.3468 107.94 44.3803 107.94 43.1216V37.727C107.94 37.2176 107.602 36.8729 106.927 36.6931C106.589 36.5732 106.231 36.5133 105.851 36.5133C105.471 36.5133 105.098 36.5582 104.732 36.6481L104.859 38.761V42.0427C104.859 43.5112 104.338 44.2454 103.297 44.2454C102.847 44.2454 102.474 44.0731 102.179 43.7285C101.884 43.3838 101.736 42.8968 101.736 42.2674V27.2526H107.265C107.63 27.2526 107.813 26.9604 107.813 26.376C107.813 25.7916 107.743 25.1098 107.602 24.3306L105.408 24.5554H101.736V19.4306C101.398 19.3706 101.089 19.3407 100.807 19.3407C99.8789 19.3407 99.3584 19.6703 99.2458 20.3297L98.655 24.5554H97.5154C97.1497 24.5554 96.9668 24.8476 96.9668 25.432C96.9668 26.0164 97.0653 26.6982 97.2622 27.4774L98.5706 27.2526V42.8069C98.5706 44.0956 98.9856 45.1221 99.8156 45.8863C100.646 46.6505 101.757 47.0326 103.15 47.0326C104.542 47.0326 105.689 46.6955 106.589 46.0211Z" fill="white"/>
<path d="M110.135 17.9021C110.135 19.6104 110.74 20.4645 111.95 20.4645C113.159 20.4645 113.764 19.6104 113.764 17.9021C113.764 16.1938 113.159 15.3397 111.95 15.3397C110.74 15.3397 110.135 16.1938 110.135 17.9021ZM109.333 24.5553C108.967 24.5553 108.784 24.8476 108.784 25.432C108.784 26.0164 108.883 26.6982 109.08 27.4774L110.388 27.2526V43.7509C110.388 44.9197 110.578 45.7589 110.958 46.2684C111.338 46.7779 111.921 47.0326 112.709 47.0326C113.497 47.0326 114.095 46.8228 114.503 46.4032C114.911 45.9837 115.101 45.3843 115.073 44.6051C114.482 44.6051 114.081 44.4702 113.87 44.2005C113.659 43.9307 113.553 43.4812 113.553 42.8518V24.5553H109.333Z" fill="white"/>
<path d="M119.44 24.8251C119.089 24.3456 118.519 24.1058 117.731 24.1058C116.943 24.1058 116.331 24.3231 115.895 24.7576C115.459 25.1922 115.255 25.7841 115.283 26.5333C115.874 26.5333 116.275 26.6682 116.486 26.9379C116.697 27.2077 116.803 27.6572 116.803 28.2866C116.803 30.5043 117.007 33.269 117.415 36.5807C117.823 39.8923 118.336 42.687 118.955 44.9647C119.265 46.0436 119.771 46.5831 120.474 46.5831H122.965C123.668 46.5831 124.174 46.0436 124.484 44.9647C125.187 42.5371 125.82 39.3004 126.383 35.2545C126.946 31.2086 127.227 27.912 127.227 25.3645C127.227 24.885 127.023 24.5853 126.615 24.4654C126.207 24.3456 125.757 24.2856 125.265 24.2856C124.772 24.2856 124.259 24.3456 123.724 24.4654L123.809 27.3875C123.809 32.1227 123.161 37.5622 121.867 43.706C121.389 41.5781 120.953 38.8509 120.559 35.5242C120.165 32.1976 119.968 29.7026 119.968 28.0393C119.968 26.376 119.792 25.3046 119.44 24.8251Z" fill="white"/>
<path d="M135.964 28.9159C135.964 31.0738 135.528 32.4973 134.655 33.1866L132.63 34.805V28.3765C132.63 27.4474 133.15 26.9829 134.191 26.9829C134.698 26.9829 135.12 27.1552 135.457 27.4999C135.795 27.8445 135.964 28.3165 135.964 28.9159ZM129.464 42.5821C129.464 45.5491 131.04 47.0326 134.191 47.0326C135.654 47.0326 136.829 46.6954 137.715 46.0211C138.602 45.3468 139.045 44.4103 139.045 43.2115V39.9747C139.045 39.4653 138.707 39.1206 138.032 38.9408C137.694 38.8209 137.335 38.761 136.956 38.761C136.576 38.761 136.203 38.8059 135.837 38.8958L135.964 41.0087V42.0426C135.964 43.4512 135.408 44.1555 134.297 44.1555C133.185 44.1555 132.63 43.5261 132.63 42.2674V38.1766L136.681 35.2096C137.469 34.6401 138.088 33.801 138.538 32.6921C138.988 31.5832 139.214 30.3695 139.214 29.0508C139.214 25.7541 137.589 24.1058 134.339 24.1058C131.089 24.1058 129.464 25.5743 129.464 28.5113V42.5821Z" fill="white"/>
<path d="M0 62.4392C0.10883 61.7559 0.154653 61.2861 0.263483 60.8285C0.51551 59.7364 0.836273 58.6565 1.05393 57.5583C1.11232 57.0811 1.13339 56.5994 1.11694 56.1185C1.09979 55.8781 1.12306 55.6363 1.18567 55.4046C1.57517 54.4894 1.52362 53.3668 2.43436 52.6896C2.70357 52.4883 2.78376 51.9636 2.90977 51.567C3.82051 48.6323 4.78279 45.7099 5.60188 42.7508C6.17467 40.6093 6.58135 38.4068 7.07968 36.2348C7.48636 34.4594 7.81858 32.6595 8.19089 30.878C8.64912 28.6938 9.4052 26.6072 9.82907 24.423C10.2529 22.2388 10.82 20.1522 11.4157 18.0168C12.1317 15.5031 12.9164 13.0016 13.7069 10.5246C14.3598 8.5539 15.0529 6.58933 15.8434 4.67357C16.3703 3.33207 17.0391 2.05889 17.8367 0.87866C18.5068 -0.0731194 19.6811 -0.13413 20.7006 0.146523C21.6682 0.371441 22.5537 0.890714 23.2495 1.6413C25.3689 4.02482 27.4844 6.39206 29.596 8.74304C30.4667 9.70702 31.4519 10.5734 32.2481 11.5984C35.7707 16.1864 37.8843 21.3602 37.6667 27.3942C37.5483 30.7011 37.3764 34.0038 37.1511 37.3025C37.0907 38.3423 36.898 39.3685 36.5784 40.3531C35.8738 42.4336 35.1292 44.5202 34.2356 46.5153C32.4351 50.5388 29.3134 53.7206 25.4605 55.4595C22.5679 56.8445 19.7326 58.3271 16.7598 59.5717C14.2625 60.6333 11.7422 61.6827 9.02717 62.0793C7.44054 62.3111 5.88255 62.8114 4.30738 63.1409C3.57989 63.3137 2.83597 63.3956 2.09068 63.3849C1.69927 63.3935 1.31059 63.3136 0.950243 63.1506C0.589893 62.9876 0.266038 62.7452 0 62.4392ZM26.0562 44.0931C26.2843 43.8253 26.477 43.5256 26.629 43.2023C27.38 41.1891 28.0282 39.1341 28.5707 37.0463C29.2638 33.9347 29.0748 30.7682 28.6338 27.6139C28.2743 25.3058 27.7808 23.0236 27.156 20.7806C26.8867 19.7434 26.5373 18.7306 26.1765 17.5531C22.2472 21.1223 17.8768 23.9166 14.314 28.1874C14.7493 28.1874 14.9326 28.2301 15.1159 28.224C16.4906 28.1691 17.8596 28.102 19.2343 28.0593C20.8839 28.0166 22.5393 27.9983 24.1889 27.9617C24.4638 27.9617 24.8304 28.0288 24.9965 27.8762C26.0848 26.8451 27.0586 27.681 28.0094 28.0959C28.1451 28.1634 28.2609 28.269 28.3445 28.4013C28.428 28.5336 28.4762 28.6876 28.4839 28.8469C28.4916 29.0062 28.4584 29.1646 28.3879 29.3053C28.3174 29.446 28.2123 29.5637 28.0839 29.6456C27.8286 29.8403 27.5346 29.9697 27.2247 30.0238C26.4577 30.169 25.6829 30.2627 24.9049 30.3045C22.3789 30.3899 19.8472 30.4021 17.3212 30.4997C15.3279 30.579 13.3116 30.756 11.3928 30.8841C10.8544 32.0677 10.8601 32.0616 11.7365 32.629C12.015 32.7885 12.2796 32.9743 12.5269 33.1842C14.9727 35.5088 17.9398 37.1317 20.6605 39.1024C22.1211 40.1579 23.6448 41.1096 25.134 42.1529C25.469 42.3351 25.741 42.6259 25.9109 42.9833C26.0808 43.3408 26.1397 43.7465 26.0791 44.1419C24.7732 44.9778 24.3607 45.1608 22.8371 43.9223C21.7316 43.0193 20.546 42.1773 19.4004 41.372C17.7278 40.225 16.0152 39.1512 14.3427 38.0102C13.2314 37.2537 12.1603 36.424 10.9059 35.4905C11.5073 41.8235 12.5498 47.8636 13.6496 54.0197C14.7436 53.5621 15.8491 53.0557 16.9889 52.6286C20.0699 51.4843 22.7763 49.4191 24.7846 46.68C25.3173 45.8807 26.1421 45.234 26.0562 44.0931ZM19.6238 3.53876C20.1966 3.98414 20.6548 4.34411 21.1073 4.75899C25.1296 8.41791 28.1545 13.1613 29.8653 18.4927C31.1482 22.3199 32.0037 26.2947 32.4142 30.335C32.5616 31.7529 32.5999 33.1813 32.5287 34.6058C32.2851 37.6991 31.5268 40.7215 30.2891 43.5318C29.587 45.3975 28.5978 47.1254 27.3622 48.6446C24.8075 51.6463 21.5598 53.4156 18.1288 54.9226C15.8675 55.8605 13.5074 56.5018 11.1007 56.8323C8.53456 57.2411 6.00856 58.1318 3.28208 57.8146L2.51455 61.2373C3.93507 60.9323 5.16084 60.6821 6.37515 60.4015C8.66631 59.8707 10.9976 59.4619 13.2028 58.5345C14.503 57.9854 15.8892 57.6804 17.1264 56.9238C18.0028 56.3869 18.9307 55.9476 19.8357 55.4656C20.1413 55.2789 20.4591 55.1158 20.7865 54.9775C23.1186 54.0928 25.2977 52.8044 27.2362 51.1643C28.7301 50.0518 29.9263 48.5442 30.7073 46.7898C31.5034 44.8313 32.3454 42.8912 33.0385 40.89C33.4714 39.6798 33.7526 38.4141 33.8748 37.1256C34.1211 34.0445 34.207 30.9451 34.3846 27.8579C34.6107 23.8182 33.7925 19.7898 32.0189 16.2108C31.2984 14.6245 30.3666 13.1573 29.2524 11.8546C27.1101 9.46298 25.0538 6.97371 22.923 4.58206C22.0696 3.62418 21.113 2.75171 20.0591 1.72062L19.6238 3.53876ZM12.7388 25.1368L12.8878 25.2405L13.6496 24.5267C14.4744 23.7519 15.2763 22.9465 16.124 22.1961C18.2434 20.3291 20.397 18.5354 22.5049 16.6257C23.1418 16.0686 23.9376 15.7588 24.7617 15.7472H25.4834C23.8395 11.9766 21.9092 8.65762 18.8791 5.98532C18.2262 7.474 17.619 8.77355 17.0863 10.1036C16.8114 10.7869 16.6567 11.5313 16.4448 12.2451C15.4138 15.7106 14.3713 19.176 13.3517 22.617C13.1054 23.4468 12.9393 24.2949 12.7388 25.1368ZM10.8715 54.2149C10.6249 53.8253 10.432 53.4 10.2988 52.952C9.86344 50.0844 9.47967 47.2108 9.07299 44.3371C9.00425 43.849 8.88397 43.3732 8.74077 42.6593L4.56514 55.4168C5.54461 55.7341 9.70878 54.9226 10.8715 54.2088V54.2149Z" fill="#E1F500"/>
</svg>
